<?xml version="1.0" encoding="UTF-8"?>
<svg version="1.1" xmlns="http://www.w3.org/2000/svg" width="2000" height="2000">
<path d="M0 0 C660 0 1320 0 2000 0 C2000 660 2000 1320 2000 2000 C1340 2000 680 2000 0 2000 C0 1340 0 680 0 0 Z " fill="#FEFEFF" transform="translate(0,0)"/>
<path d="M0 0 C7.79059259 5.72183019 12.67811888 12.6696631 15.76171875 21.76953125 C16.18384644 22.95289063 16.18384644 22.95289063 16.61450195 24.16015625 C18.41843223 29.27559058 20.09299447 34.4303613 21.75390625 39.59375 C22.14924561 40.81215576 22.54458496 42.03056152 22.9519043 43.28588867 C23.73260251 45.70487878 24.50004077 48.12819458 25.25317383 50.5559082 C25.61048584 51.66796631 25.96779785 52.78002441 26.3359375 53.92578125 C26.64748779 54.92029297 26.95903809 55.91480469 27.2800293 56.93945312 C28.69066448 59.97692859 29.37525421 61.0761403 32.44921875 62.45703125 C38.77931777 62.64722361 44.63514191 60.6250995 50.515625 58.515625 C52.2360267 57.92555273 53.9567403 57.3363892 55.67773438 56.74804688 C58.33792151 55.82780417 60.99494598 54.90050343 63.64672852 53.95629883 C88.71936462 45.07479875 88.71936462 45.07479875 100.49536133 49.63720703 C103.08030057 51.02753452 105.20312511 52.57047418 107.44921875 54.45703125 C108.1659375 55.04871094 108.88265625 55.64039063 109.62109375 56.25 C116.28372472 62.32401507 122.0253919 70.89279021 122.72265625 80.046875 C123.08471618 90.83251554 122.21787024 99.55960805 115.171875 108.2734375 C107.96284733 115.9045654 100.34574206 119.37296321 90.49609375 122.515625 C88.80839389 123.07165936 87.1208997 123.6283183 85.43359375 124.18554688 C82.8068877 125.04592612 80.17880259 125.90108043 77.546875 126.74536133 C74.98321589 127.57078909 72.42702488 128.41661865 69.87109375 129.265625 C69.08563171 129.51162949 68.30016968 129.75763397 67.49090576 130.01109314 C62.85084577 131.57099926 59.79435923 132.90079162 57.44921875 137.45703125 C56.14878363 144.54088775 58.57597528 150.96967378 60.921875 157.5703125 C61.28260605 158.61994675 61.6433371 159.66958099 62.01499939 160.75102234 C63.1677021 164.09514443 64.33933552 167.43226464 65.51171875 170.76953125 C66.27274179 172.96766403 67.03251807 175.16622886 67.79101562 177.36523438 C69.27928795 181.6755583 70.78470748 185.97934142 72.30126953 190.27978516 C73.71242856 194.29642696 75.06310807 198.32508742 76.35888672 202.38037109 C76.65975693 203.30021286 76.96062714 204.22005463 77.27061462 205.16777039 C77.82671656 206.87357285 78.36699382 208.58465506 78.88771057 210.30158997 C80.19192681 214.24399026 81.11852676 216.16043181 84.28149414 218.99731445 C89.78275436 221.53234604 93.60127957 220.64523788 99.2102356 218.65309143 C99.91042816 218.39374313 100.61062073 218.13439484 101.33203125 217.8671875 C102.43706497 217.4712162 102.43706497 217.4712162 103.56442261 217.06724548 C105.90433986 216.22689154 108.23932482 215.37373135 110.57421875 214.51953125 C112.91713728 213.67156515 115.26099558 212.82627118 117.60543823 211.98252869 C119.06008831 211.45802646 120.51369312 210.93061368 121.96609497 210.3999176 C131.86514087 206.80331503 143.35515261 205.37039254 153.3984375 209.41796875 C163.20850117 214.38840101 170.46869907 221.04644133 174.44921875 231.45703125 C177.19654091 241.93348642 176.73974647 254.93093223 171.44921875 264.45703125 C163.27430578 277.36361939 145.81269781 280.06011996 132.10571289 284.30297852 C129.64860066 285.06633697 127.19534372 285.84122644 124.7421875 286.6171875 C123.62640572 286.95641991 123.62640572 286.95641991 122.48808289 287.30250549 C117.88910141 288.76288607 114.29255664 290.5150577 110.44921875 293.45703125 C108.37870789 297.59805297 109.37633642 301.62260098 110.71850586 305.85424805 C111.29512346 307.5414909 111.88169452 309.22535488 112.4765625 310.90625 C112.78493546 311.80068314 113.09330841 312.69511627 113.411026 313.61665344 C114.39431313 316.46235036 115.39027205 319.30341891 116.38671875 322.14453125 C117.05358253 324.06676326 117.71960735 325.98928654 118.38476562 327.91210938 C119.84789563 332.13752094 121.3190738 336.3600305 122.79747009 340.5801239 C125.38039013 348.01842322 125.95785128 356.85418988 122.88671875 364.26953125 C121.76171875 366.375 121.76171875 366.375 120.44921875 368.45703125 C119.97484375 369.21628906 119.50046875 369.97554688 119.01171875 370.7578125 C113.26064871 378.98350162 104.84486206 384.54801866 95.11328125 387.01953125 C83.81087463 388.87564495 74.73935872 387.22308349 65.26171875 380.83203125 C54.56082785 371.88175351 51.34314821 359.44603409 47.26171875 346.64453125 C46.35885449 343.83607584 45.45103643 341.02957888 44.53044128 338.22688293 C43.96192413 336.49414156 43.40365488 334.75799262 42.8573761 333.01811218 C41.3649528 328.44799831 39.85962643 324.98944006 36.44921875 321.45703125 C29.40188904 317.9333664 20.99631407 321.55554843 14.06330872 323.86114502 C12.60451832 324.35609652 11.14591985 324.85161399 9.6875 325.34765625 C8.1680468 325.85466021 6.64828077 326.36072748 5.1282196 326.86590576 C1.95585299 327.92345063 -1.21322781 328.99016122 -4.38012695 330.06396484 C-8.42662455 331.4355122 -12.47948268 332.78697178 -16.53485394 334.13202286 C-19.66938312 335.17351511 -22.80084062 336.22399563 -25.93140602 337.27733612 C-27.42444905 337.77884806 -28.91829553 338.27797498 -30.41296959 338.7746048 C-32.50457571 339.47143342 -34.59188169 340.17990071 -36.6784668 340.89160156 C-37.86377487 341.29131165 -39.04908295 341.69102173 -40.27030945 342.10284424 C-45.07683499 344.08699007 -48.64396744 346.09681053 -51.55078125 350.45703125 C-52.07027299 356.73186689 -50.8720971 361.51117952 -48.7421875 367.375 C-48.45601059 368.19527176 -48.16983368 369.01554352 -47.87498474 369.860672 C-46.96602228 372.45954871 -46.04047335 375.0521089 -45.11328125 377.64453125 C-44.19287969 380.24868232 -43.27601907 382.85402617 -42.36228943 385.46052551 C-41.79481797 387.07598259 -41.22296898 388.68991059 -40.64613342 390.30204773 C-37.04111264 400.47986704 -35.51405763 410.94040952 -40.16796875 421.078125 C-45.46628461 430.19302432 -53.10136021 435.80138729 -62.73828125 439.76953125 C-73.12883305 442.30944391 -83.06480621 442.95742608 -92.55078125 437.45703125 C-101.94546329 430.35273154 -107.51764641 422.9045994 -110.9609375 411.76171875 C-111.2551207 410.85124786 -111.54930389 409.94077698 -111.85240173 409.00271606 C-112.78444922 406.11609693 -113.70056978 403.22481754 -114.61328125 400.33203125 C-115.5301352 397.43231496 -116.45074031 394.53412267 -117.38487244 391.6399231 C-117.96392761 389.8457301 -118.53324634 388.04835646 -119.09132385 386.24752808 C-120.59282167 381.59308255 -122.06488038 378.03911019 -125.55078125 374.45703125 C-129.81210191 372.32637092 -134.38815479 373.25800731 -138.76342773 374.65039062 C-140.31946418 375.19134403 -141.87215406 375.74199235 -143.421875 376.30078125 C-145.14882006 376.89401132 -146.87604311 377.48643264 -148.60351562 378.078125 C-151.28552211 379.00974627 -153.96440951 379.94851176 -156.63842773 380.90283203 C-170.12236199 385.68838285 -183.40357404 390.15529872 -197.17578125 383.76953125 C-198.994385 382.71031745 -200.79077637 381.61099671 -202.55078125 380.45703125 C-203.164375 380.07417969 -203.77796875 379.69132812 -204.41015625 379.296875 C-211.26308643 374.36912366 -216.06714449 364.6476871 -217.55078125 356.45703125 C-218.45419839 346.32983662 -218.04337818 337.57846071 -211.90234375 329.2109375 C-207.02864217 323.41144545 -202.24427977 319.42614687 -195.05078125 316.83203125 C-194.06513184 316.47069092 -194.06513184 316.47069092 -193.05957031 316.10205078 C-188.77417074 314.54965769 -184.46071863 313.0852025 -180.13818359 311.63973999 C-177.51657818 310.76246054 -174.89748505 309.87777002 -172.27807617 308.99395752 C-170.32323575 308.3395482 -168.36406241 307.69954082 -166.40429688 307.06005859 C-165.18935547 306.65223145 -163.97441406 306.2444043 -162.72265625 305.82421875 C-161.63049805 305.46440918 -160.53833984 305.10459961 -159.41308594 304.73388672 C-155.71388666 303.08369803 -153.36903172 301.09353218 -151.55078125 297.45703125 C-151.10651096 291.57723081 -152.37202129 287.03488467 -154.26171875 281.5703125 C-154.5454837 280.72286469 -154.82924866 279.87541687 -155.12161255 279.00228882 C-156.04527979 276.25415404 -156.98454398 273.51169343 -157.92578125 270.76953125 C-158.56878853 268.87815691 -159.21136417 266.98663578 -159.85351562 265.0949707 C-161.13847929 261.31770432 -162.43120502 257.54321421 -163.72949219 253.77050781 C-165.11168407 249.74989769 -166.46974415 245.72204215 -167.81143188 241.6877594 C-168.87515673 238.50116027 -169.96423556 235.32342027 -171.05078125 232.14453125 C-171.60838135 230.45034058 -171.60838135 230.45034058 -172.17724609 228.72192383 C-174.28428235 222.68762443 -175.85101435 218.65256888 -181.55078125 215.45703125 C-187.20819322 214.97303955 -191.52545325 216.1568377 -196.75 218.046875 C-197.50747025 218.31085587 -198.26494049 218.57483673 -199.04536438 218.84681702 C-201.44670726 219.68591766 -203.8425082 220.53967312 -206.23828125 221.39453125 C-208.6457922 222.24261255 -211.05434471 223.0876593 -213.46333313 223.93153381 C-214.95694082 224.45593454 -216.44949726 224.98334183 -217.94084167 225.5141449 C-227.89798248 229.04222722 -238.32651009 230.78120356 -248.25073242 226.30737305 C-259.26705312 220.72077016 -265.10817364 213.94213244 -269.30078125 202.390625 C-271.99472733 193.13018534 -270.92866831 183.39636808 -267.55078125 174.45703125 C-261.69848481 163.84161576 -251.26935837 159.30324201 -240.23828125 155.58984375 C-239.30274414 155.26539276 -238.36720703 154.94094177 -237.40332031 154.60665894 C-235.44891582 153.93107266 -233.49266875 153.2607946 -231.53466797 152.59570312 C-228.52687811 151.57391099 -225.52485014 150.53645322 -222.5234375 149.49609375 C-220.61619502 148.8389445 -218.70865351 148.18266234 -216.80078125 147.52734375 C-215.45246216 147.06341721 -215.45246216 147.06341721 -214.0769043 146.59011841 C-213.24843994 146.30917328 -212.41997559 146.02822815 -211.56640625 145.73876953 C-210.83711914 145.49039337 -210.10783203 145.24201721 -209.35644531 144.9861145 C-207.55078125 144.45703125 -207.55078125 144.45703125 -205.55078125 144.45703125 C-202.93485794 136.60926131 -205.10391028 129.63230243 -207.83203125 122.12109375 C-208.51571297 120.14977009 -209.19930392 118.17841495 -209.8828125 116.20703125 C-210.96434547 113.14244258 -212.05152594 110.07994079 -213.14208984 107.01855469 C-214.19882752 104.03668539 -215.2347755 101.04814896 -216.26953125 98.05859375 C-216.59763794 97.15928131 -216.92574463 96.25996887 -217.26379395 95.33340454 C-219.81307968 87.93919357 -220.79465404 80.68132079 -218.5546875 73.07421875 C-211.90157768 60.417083 -203.18212107 53.00081119 -189.55078125 48.45703125 C-177.4124061 47.39164868 -167.29335231 49.67272006 -157.68359375 57.28515625 C-152.23650224 62.83201135 -148.71267777 68.49145527 -146.23828125 75.83203125 C-145.95686279 76.62351562 -145.67544434 77.415 -145.38549805 78.23046875 C-143.61036332 83.25658531 -141.92999114 88.31383037 -140.24609375 93.37109375 C-139.85075439 94.54494629 -139.45541504 95.71879883 -139.0480957 96.92822266 C-138.26798058 99.25168938 -137.5005361 101.57945502 -136.74682617 103.91162109 C-136.38951416 104.97848145 -136.03220215 106.0453418 -135.6640625 107.14453125 C-135.19673706 108.57345703 -135.19673706 108.57345703 -134.7199707 110.03125 C-133.29372878 112.99035207 -132.52719561 114.02667803 -129.55078125 115.45703125 C-120.61928067 116.67336523 -112.4355068 113.17548445 -104.09765625 110.34765625 C-102.50853146 109.81827633 -100.91910951 109.28978771 -99.32940674 108.762146 C-96.01158453 107.6576141 -92.69708974 106.54376027 -89.38476562 105.42285156 C-85.14793093 103.9897116 -80.90428604 102.57813939 -76.65803146 101.17319107 C-73.37995707 100.0863503 -70.10539409 98.98923746 -66.83182526 97.88890839 C-65.26835681 97.36452978 -63.70390475 96.84307417 -62.13845062 96.32465363 C-59.9503472 95.59808465 -57.76726191 94.85804487 -55.58496094 94.11425781 C-54.34413757 93.69678284 -53.10331421 93.27930786 -51.82489014 92.84918213 C-48.4852238 91.42915623 -46.17296397 89.95391373 -43.55078125 87.45703125 C-41.20560288 80.42149613 -43.19309556 74.6192979 -45.578125 67.9453125 C-45.88649796 67.05466599 -46.19487091 66.16401947 -46.5125885 65.24638367 C-47.49439552 62.41712985 -48.49082104 59.59329992 -49.48828125 56.76953125 C-50.47898868 53.93402508 -51.46668845 51.09749059 -52.45326233 48.26054382 C-53.06673718 46.49987069 -53.68318874 44.74023122 -54.30296326 42.98176575 C-54.72328575 41.78483345 -54.72328575 41.78483345 -55.15209961 40.5637207 C-55.39858749 39.86535599 -55.64507538 39.16699127 -55.89903259 38.44746399 C-58.51174041 30.46828503 -58.29336681 23.60112312 -54.87109375 15.87109375 C-52.64933997 11.80883388 -49.88566187 8.64605228 -46.55078125 5.45703125 C-45.89207031 4.82667969 -45.23335937 4.19632813 -44.5546875 3.546875 C-31.78771074 -7.486604 -14.33400541 -8.67064646 0 0 Z " fill="#0072FF" transform="translate(325.55078125,52.54296875)"/>
<path d="M0 0 C7.11159861 6.46508965 9.66101667 15.17642777 12.61328125 24.08984375 C13.05401946 25.40223893 13.49528819 26.71445605 13.9370575 28.02650452 C14.85575225 30.76335437 15.76660236 33.50265963 16.67211914 36.24389648 C17.82692999 39.73703389 19.00334312 43.22244742 20.1860323 46.70622921 C21.10074242 49.40984979 22.0026788 52.11760475 22.90105247 54.82669258 C23.53597934 56.73290463 24.18232445 58.63530141 24.82893372 60.5375824 C26.97825856 67.10812603 28.42486808 72.57898446 27.75 79.5 C25.9375 82.875 25.9375 82.875 23.75 85.5 C23.34459991 85.9985701 22.93919983 86.4971402 22.52151489 87.01081848 C19.98510044 89.14299447 17.35322233 89.89479968 14.21826172 90.9519043 C13.55928391 91.1766745 12.90030609 91.4014447 12.22135925 91.63302612 C10.04383002 92.37275745 7.86210584 93.09904961 5.6796875 93.82421875 C4.15840604 94.33520158 2.63725928 94.8465856 1.11624146 95.35835266 C-2.07445819 96.42938099 -5.26739363 97.49340348 -8.46191406 98.55297852 C-12.53885587 99.90618226 -16.60863335 101.27964474 -20.6768055 102.65895367 C-23.81882207 103.72109065 -26.96494963 104.77060221 -30.11236191 105.81662941 C-31.61354553 106.3175347 -33.11333027 106.82265406 -34.6116066 107.33218956 C-52.54209121 113.41508154 -52.54209121 113.41508154 -60.9375 110 C-64.318233 107.18855769 -65.42513181 103.97902846 -66.90234375 99.8984375 C-67.15223053 99.21119598 -67.40211731 98.52395447 -67.65957642 97.81588745 C-68.53692027 95.38196684 -69.39533155 92.94197465 -70.25 90.5 C-70.58321259 89.55056519 -70.91642517 88.60113037 -71.25973511 87.6229248 C-73.53564325 81.11303408 -75.76421505 74.58810482 -77.96582031 68.05273438 C-78.74297214 65.75466958 -79.52657801 63.45877796 -80.31640625 61.16503906 C-81.473027 57.80492217 -82.60964243 54.43860929 -83.7421875 51.0703125 C-84.27173538 49.54967697 -84.27173538 49.54967697 -84.8119812 47.99832153 C-87.24992827 40.64118731 -89.00504961 33.44886162 -85.75 26.125 C-79.44720364 19.50706383 -69.44709353 17.34266827 -61.00390625 14.515625 C-59.62438317 14.05064159 -58.24490294 13.58553104 -56.86546326 13.12030029 C-53.9865328 12.15121786 -51.10596738 11.18718112 -48.22436523 10.22607422 C-44.55068771 8.99978515 -40.88333641 7.75562786 -37.21722507 6.5069313 C-34.37453471 5.54196471 -31.5278093 4.58936849 -28.67985344 3.64006805 C-27.32653167 3.18678725 -25.97466458 2.72913686 -24.62439156 2.26685333 C-7.65090182 -3.53118546 -7.65090182 -3.53118546 0 0 Z " fill="#FDFEFF" transform="translate(308.25,215.5)"/>
</svg>
