<?xml version="1.0" encoding="UTF-8"?>
<svg version="1.1" xmlns="http://www.w3.org/2000/svg" width="1065" height="317">
<path d="M0 0 C2.75 2.3125 2.75 2.3125 5 5 C5.80953125 5.87011719 6.6190625 6.74023438 7.453125 7.63671875 C10.45221411 11.24523957 11.6738109 15.05302995 13 19.5 C13.50123993 21.09157612 14.00386348 22.6827171 14.5078125 24.2734375 C14.7543457 25.06331055 15.00087891 25.85318359 15.25488281 26.66699219 C16.37796879 30.18344356 17.61769606 33.65469578 18.875 37.125 C19.28492188 38.26195312 19.69484375 39.39890625 20.1171875 40.5703125 C20.40851563 41.37210938 20.69984375 42.17390625 21 43 C28.22169352 43.74418032 34.24703147 41.04365856 40.9375 38.5625 C60.910651 31.19803495 60.910651 31.19803495 70 35 C76.77819306 38.67045549 80.81790647 44.05224562 84 51 C86.15749027 59.68258281 84.93752096 66.09761418 81 74 C75.45864391 82.90575085 65.13698559 85.57847324 55.6875 88.625 C53.35540838 89.37983775 51.02583536 90.1425144 48.69921875 90.9140625 C47.67658936 91.2435791 46.65395996 91.5730957 45.6003418 91.91259766 C42.18181615 93.2483641 42.18181615 93.2483641 40 96 C40.23450206 101.71366729 41.68833023 106.72517147 43.58203125 112.0859375 C43.83748215 112.82776276 44.09293304 113.56958801 44.35612488 114.33389282 C44.8946443 115.89313526 45.43687894 117.4510991 45.98266602 119.0078125 C46.80699094 121.35928484 47.62032474 123.71432397 48.43164062 126.0703125 C50.89852158 133.19999899 53.40262574 140.28467666 56.3425293 147.23681641 C57 149 57 149 57 151 C63.4234607 151.47646549 68.48609584 149.7685698 74.5 147.625 C76.32246099 146.99087637 78.14536919 146.35803637 79.96875 145.7265625 C80.83048828 145.4275 81.69222656 145.1284375 82.58007812 144.8203125 C90.77709779 142.04166177 97.62708503 140.76834861 106 144 C112.21826505 147.82845382 118.22909616 152.5565073 120.3125 159.8125 C121.97271778 168.1294005 121.61396861 177.11301521 117.5625 184.6875 C109.81490528 191.67923182 99.64412729 194.74114559 89.875 197.8125 C87.45496727 198.58746855 85.03565229 199.36468337 82.6171875 200.14453125 C81.56128418 200.47815674 80.50538086 200.81178223 79.41748047 201.15551758 C77.07926903 201.77594471 77.07926903 201.77594471 76 203 C75.32391114 208.13827531 76.97275851 212.07917212 78.78125 216.78125 C80.17844348 220.4712738 81.44404993 224.19349051 82.6875 227.9375 C83.31205078 229.80728516 83.31205078 229.80728516 83.94921875 231.71484375 C86.61936402 240.06277003 87.05264552 247.06012306 83 255 C79.12034175 261.06196601 73.7694893 264.59343427 67 267 C58.55915753 268.33698666 51.53974386 267.754813 44.24609375 263.19140625 C37.1753238 256.29279417 34.25761226 247.9279845 31.3125 238.6875 C30.56524124 236.37674599 29.81159066 234.06804674 29.05078125 231.76171875 C28.72762939 230.75069092 28.40447754 229.73966309 28.0715332 228.69799805 C26.98935002 225.97318458 26.08444966 224.06658646 24 222 C16.97565065 221.00004291 9.32853011 224.26692657 2.8125 226.5625 C1.27710571 227.09061279 1.27710571 227.09061279 -0.28930664 227.62939453 C-2.43465836 228.36871877 -4.57844438 229.11260071 -6.72070312 229.86083984 C-10.02071313 231.00719531 -13.32906118 232.1257875 -16.640625 233.23828125 C-18.73977765 233.94994793 -20.83874289 234.6621677 -22.9375 235.375 C-23.93225342 235.70830322 -24.92700684 236.04160645 -25.9519043 236.38500977 C-27.31955933 236.85571899 -27.31955933 236.85571899 -28.71484375 237.3359375 C-29.52042725 237.60970215 -30.32601074 237.8834668 -31.15600586 238.16552734 C-33.1886686 238.85192627 -33.1886686 238.85192627 -34 241 C-34.65499306 245.91244793 -33.65932942 249.22726835 -31.8125 253.8125 C-22.20061824 277.73172301 -22.20061824 277.73172301 -25.0078125 286.89453125 C-28.64655981 294.61612496 -34.09641287 299.60522489 -41.6875 303.3125 C-49.24024047 304.88004991 -56.95846446 305.10123402 -63.91015625 301.41796875 C-73.56947484 294.86407595 -76.19939925 285.87226093 -79.32348633 275.18701172 C-80.39268019 271.73055605 -81.71218496 268.38051448 -83 265 C-83.71719761 262.67715681 -84.36434221 260.34704416 -85 258 C-91.72599742 257.40213356 -96.7912442 259.59189521 -103 262 C-122.48481365 269.41978341 -122.48481365 269.41978341 -132.75390625 266.11328125 C-140.73173879 262.5345516 -145.67128659 257.04597585 -149 249 C-149.43480317 246.17500961 -149.46525835 243.41656312 -149.4375 240.5625 C-149.4674707 239.47485352 -149.4674707 239.47485352 -149.49804688 238.36523438 C-149.49233963 232.01306648 -147.56713631 228.03330783 -143.4296875 223.14453125 C-135.95624909 216.7414094 -126.20284569 214.29150787 -117 211.25 C-115.59041016 210.77626953 -115.59041016 210.77626953 -114.15234375 210.29296875 C-113.25644531 209.99519531 -112.36054687 209.69742188 -111.4375 209.390625 C-110.63183594 209.12282227 -109.82617188 208.85501953 -108.99609375 208.57910156 C-107 208 -107 208 -105 208 C-104.71130985 201.34859541 -105.48304243 196.32085843 -107.73828125 190.08984375 C-108.01971481 189.27810196 -108.30114838 188.46636017 -108.59111023 187.63002014 C-109.48529526 185.06109717 -110.39856912 182.49945539 -111.3125 179.9375 C-111.91466734 178.21593356 -112.51558954 176.49393106 -113.11523438 174.77148438 C-117.06548848 162.68098608 -117.06548848 162.68098608 -122 151 C-126.74987931 149.67545575 -129.83459405 150.26053692 -134.4296875 151.87109375 C-135.63753906 152.28037109 -136.84539062 152.68964844 -138.08984375 153.11132812 C-139.35206592 153.55194593 -140.61378253 153.99401456 -141.875 154.4375 C-160.5163049 160.95131007 -160.5163049 160.95131007 -170.12109375 156.91015625 C-176.29715263 153.9184271 -181.32106207 150.06302978 -183.9765625 143.63671875 C-186.81168777 134.90612271 -186.58467051 127.48468384 -183 119 C-177.53703284 111.97618509 -169.42959204 108.46235238 -161.125 105.9375 C-159.5436 105.43308793 -157.96286416 104.92658869 -156.3828125 104.41796875 C-155.63032227 104.17739746 -154.87783203 103.93682617 -154.10253906 103.68896484 C-146.44546279 101.39806521 -146.44546279 101.39806521 -140 97 C-140.43195484 92.90346933 -141.92786993 89.1009154 -143.28515625 85.23046875 C-143.73817345 83.91620275 -144.19062985 82.60174334 -144.64257812 81.28710938 C-145.35024189 79.23809333 -146.06141222 77.19058407 -146.7824707 75.14624023 C-153.01615219 57.42462156 -153.01615219 57.42462156 -149.5 49.4375 C-147.03008746 44.39331242 -143.53166269 41.22140295 -139 38 C-138.39285156 37.56429687 -137.78570312 37.12859375 -137.16015625 36.6796875 C-131.20844152 33.08097627 -124.75180723 33.07598316 -118 34 C-111.04991906 36.15462043 -105.91239824 39.88504527 -102 46 C-98.45740408 53.66844512 -96.02575694 61.81292323 -93.46875 69.84765625 C-93.17742187 70.74355469 -92.88609375 71.63945313 -92.5859375 72.5625 C-92.3286084 73.36816406 -92.0712793 74.17382812 -91.80615234 75.00390625 C-91.07717171 77.18340078 -91.07717171 77.18340078 -89 79 C-83.0123018 79.46482807 -78.38038906 78.49628302 -72.765625 76.515625 C-71.62670807 76.13032623 -71.62670807 76.13032623 -70.46478271 75.73724365 C-68.0558208 74.91946366 -65.65297533 74.08518635 -63.25 73.25 C-61.65402882 72.70460717 -60.05767686 72.16032725 -58.4609375 71.6171875 C-55.38013287 70.56765464 -52.30146976 69.51221023 -49.22460938 68.45117188 C-43.82996264 66.59332005 -38.41692571 64.79169872 -33 63 C-32.01 62.67 -31.02 62.34 -30 62 C-30.32028682 52.50128465 -33.48748859 44.42840617 -36.84960938 35.6328125 C-39.80083165 27.579718 -41.87550374 20.12631445 -38.5625 11.875 C-34.78908226 5.30151962 -28.39412843 -0.37089131 -21.09375 -2.6015625 C-13.76921331 -3.9954109 -6.71253371 -3.33624936 0 0 Z M-26.21875 114.68359375 C-30.5025214 116.15213802 -34.79227532 117.5876221 -39.1048584 118.96852112 C-42.00113489 119.89706261 -44.89290136 120.8392604 -47.78466797 121.78173828 C-49.27452242 122.26478344 -50.76576833 122.74355572 -52.25830078 123.21826172 C-54.44688654 123.91543026 -56.62992556 124.62801767 -58.8125 125.34375 C-59.80781738 125.65487732 -59.80781738 125.65487732 -60.82324219 125.97229004 C-64.79747741 127.29574745 -67.54981638 128.5501652 -70 132 C-71.59832118 137.75404304 -70.53413007 141.78587801 -68.61328125 147.20703125 C-68.35500046 147.9724675 -68.09671967 148.73790375 -67.83061218 149.52653503 C-67.00523284 151.96022914 -66.15898288 154.38607674 -65.3125 156.8125 C-64.76235088 158.42988981 -64.2135107 160.04772548 -63.66601562 161.66601562 C-59.90927885 176.16543048 -59.90927885 176.16543048 -52 188 C-44.21960313 188.86448854 -38.24555376 186.63401004 -31 184 C-28.83559571 183.26463772 -26.66667137 182.54408108 -24.49633789 181.82641602 C-22.95516179 181.3164932 -21.41527889 180.80264535 -19.87670898 180.28491211 C-16.14925538 179.03113584 -12.41855867 177.81221574 -8.65234375 176.6796875 C-7.97212158 176.46948975 -7.29189941 176.25929199 -6.59106445 176.04272461 C-4.74387423 175.47409372 -2.89161165 174.92201523 -1.0390625 174.37109375 C2.49154013 172.77823832 3.95036625 171.25763045 6 168 C7.01950406 160.73603358 4.44500284 154.76955182 2 148 C1.20288044 145.60597538 0.411457 143.21004851 -0.375 140.8125 C-1.01832557 138.898359 -1.66170718 136.98423601 -2.30712891 135.07080078 C-2.79151627 133.62310043 -3.26987164 132.17337412 -3.74365234 130.72216797 C-4.50429117 128.39382979 -5.28205448 126.07176348 -6.0625 123.75 C-6.29565918 123.02272705 -6.52881836 122.2954541 -6.76904297 121.54614258 C-8.12587674 117.57027124 -9.17554829 114.95993975 -13 113 C-17.96484172 112.37939478 -21.5169752 113.04472991 -26.21875 114.68359375 Z " fill="#0171FD" transform="translate(190,7)"/>
<path d="M0 0 C1.13985352 -0.0299707 1.13985352 -0.0299707 2.30273438 -0.06054688 C7.92015211 -0.05574976 12.42608901 1.17496976 17.0625 4.4375 C21.72653603 11.35832766 21.2469774 19.4796334 21.37890625 27.5234375 C21.39968735 28.58035797 21.42046844 29.63727844 21.44187927 30.72622681 C21.50703991 34.08825445 21.56610361 37.45035737 21.625 40.8125 C21.66821708 43.0976639 21.71183238 45.38282031 21.75585938 47.66796875 C21.86268683 53.25773391 21.96451425 58.84757324 22.0625 64.4375 C22.81660156 63.81230469 23.57070313 63.18710938 24.34765625 62.54296875 C32.36247258 56.32716155 42.47788768 55.99799311 52.28125 56.65234375 C62.16026483 57.98906612 70.34603396 62.23077732 78.0625 68.4375 C78.0625 69.0975 78.0625 69.7575 78.0625 70.4375 C78.63355469 70.66953125 79.20460938 70.9015625 79.79296875 71.140625 C89.55937731 76.72142989 95.57219332 90.54513606 99.22265625 100.6484375 C102.86498239 117.08125774 100.70953698 134.13614363 92.19921875 148.60546875 C87.94336092 154.78882933 82.81752729 160.60184429 77.0625 165.4375 C76.4025 165.4375 75.7425 165.4375 75.0625 165.4375 C75.0625 166.0975 75.0625 166.7575 75.0625 167.4375 C61.55357325 175.23985208 49.32533933 179.18606744 33.6640625 175.67578125 C28.64484225 173.93624327 24.29288271 171.6388707 20.0625 168.4375 C19.546875 169.200625 19.03125 169.96375 18.5 170.75 C15.17706341 174.4137506 11.66801262 176.10739875 6.80981445 176.72290039 C4.3659688 176.83915443 1.94620649 176.84708894 -0.5 176.8125 C-1.32435547 176.82410156 -2.14871094 176.83570313 -2.99804688 176.84765625 C-8.049203 176.82343008 -11.57382444 176.23986045 -15.9375 173.4375 C-22.67915854 165.78480652 -21.08243943 154.42689557 -21.06689453 144.81469727 C-21.06825212 143.46015374 -21.07003405 142.10561058 -21.07220459 140.75106812 C-21.07673684 137.0960782 -21.07500666 133.44111674 -21.0718255 129.78612638 C-21.06927954 125.94579067 -21.07164569 122.10545727 -21.07321167 118.26512146 C-21.07502708 111.81696133 -21.0726438 105.36881268 -21.06787109 98.9206543 C-21.062432 91.48675286 -21.06419111 84.05287886 -21.0696975 76.61897808 C-21.07424932 70.21529391 -21.074869 63.81161796 -21.07225883 57.4079327 C-21.07070713 53.59259939 -21.07047172 49.77727895 -21.07379532 45.96194649 C-21.0767041 42.3725304 -21.07464358 38.78314937 -21.06890106 35.19373703 C-21.06696837 33.26344093 -21.06990183 31.33314183 -21.07302856 29.40284729 C-21.0236883 8.92522949 -21.0236883 8.92522949 -15.9375 3.4375 C-10.51146088 0.57013672 -6.08588383 -0.05649344 0 0 Z M27.0625 102.4375 C23.0615503 106.58537724 21.32431077 110.48473407 20.9921875 116.23828125 C21.18212798 122.17919727 23.26358386 126.93878351 27.0625 131.4375 C31.62772811 134.78119315 36.19272403 136.11729872 41.83203125 135.81640625 C48.49031286 134.68531463 52.74438254 131.246314 56.93359375 126.12109375 C59.75042635 121.92021191 59.49165232 117.28773089 59.0625 112.4375 C57.33619912 106.44622049 54.39510999 102.57726102 49.0625 99.4375 C41.11823751 96.54288108 33.91634813 97.20693169 27.0625 102.4375 Z " fill="#0171FD" transform="translate(350.9375,60.5625)"/>
<path d="M0 0 C0.82829315 -0.0049649 1.6565863 -0.00992981 2.50997925 -0.01504517 C5.24119914 -0.02961125 7.97236098 -0.03645894 10.70361328 -0.04199219 C12.60783896 -0.0477475 14.51206462 -0.05350518 16.41629028 -0.05926514 C20.4057848 -0.06975882 24.39525926 -0.0756124 28.38476562 -0.07910156 C33.48797519 -0.08458779 38.59091816 -0.10862552 43.69404411 -0.13707352 C47.62664559 -0.15572683 51.55918313 -0.1609069 55.4918251 -0.16243744 C57.37282903 -0.16545758 59.253832 -0.17346449 61.13479233 -0.18662262 C63.76975388 -0.20374218 66.40406738 -0.20178873 69.0390625 -0.1953125 C69.81020386 -0.20452728 70.58134521 -0.21374207 71.37585449 -0.22323608 C78.66692166 -0.16730733 84.25588933 2.06770949 89.64892578 7.16113281 C94.20920728 13.67582067 94.37009078 20.0504923 93.02392578 27.72363281 C90.39540888 34.29492508 85.41591123 38.50919518 80.11767578 43.01269531 C76.8905922 45.82107501 73.77413943 48.74038398 70.64892578 51.66113281 C62.66545276 59.09580815 62.66545276 59.09580815 59.02392578 62.34863281 C58.16927734 63.11240234 58.16927734 63.11240234 57.29736328 63.89160156 C55.64892578 65.16113281 55.64892578 65.16113281 53.56298828 66.08691406 C51.1570133 67.43720614 50.79689737 68.6985486 49.64892578 71.16113281 C47.99267578 72.86425781 47.99267578 72.86425781 46.14892578 74.41113281 C45.54048828 74.93191406 44.93205078 75.45269531 44.30517578 75.98925781 C42.64892578 77.16113281 42.64892578 77.16113281 40.64892578 77.16113281 C40.64892578 77.82113281 40.64892578 78.48113281 40.64892578 79.16113281 C41.93992187 79.14018555 43.23091797 79.11923828 44.56103516 79.09765625 C49.37667637 79.02494635 54.19226959 78.97922057 59.00830078 78.94140625 C61.08781103 78.92136122 63.16726541 78.89411768 65.24658203 78.859375 C68.24542066 78.81054334 71.24351041 78.78809254 74.24267578 78.77050781 C75.16383179 78.74986267 76.08498779 78.72921753 77.03405762 78.70794678 C82.95525892 78.70591461 87.81535672 79.53550306 92.64892578 83.16113281 C96.75948542 88.49457064 97.00785009 94.28469588 97.08642578 100.78613281 C97.09673828 101.50244873 97.10705078 102.21876465 97.11767578 102.95678711 C97.03342984 108.03319019 96.01912012 111.65720058 93.64892578 116.16113281 C87.2851873 121.65708878 79.8997643 121.31087984 71.91894531 121.32226562 C71.07406555 121.32723053 70.22918579 121.33219543 69.35870361 121.33731079 C66.58304002 121.35183284 63.80743351 121.35871681 61.03173828 121.36425781 C59.60191935 121.36849888 59.60191935 121.36849888 58.14321518 121.37282562 C53.10133337 121.38777602 48.05947989 121.39703236 43.01757812 121.40136719 C37.8271869 121.40685343 32.63705777 121.43089667 27.44674873 121.45933914 C23.43858087 121.47801694 19.43047561 121.4831738 15.42226791 121.48470306 C13.50942422 121.48771723 11.5965813 121.49570367 9.68378067 121.50888824 C7.00155214 121.52606084 4.31995743 121.52404164 1.63769531 121.51757812 C0.85818512 121.52679291 0.07867493 121.53600769 -0.72445679 121.54550171 C-8.74033726 121.48539456 -15.9797189 119.47367982 -21.90966797 113.88769531 C-25.874896 109.13801838 -26.95764081 103.45862855 -26.68701172 97.37988281 C-25.05670844 86.61229836 -15.22179592 79.64950613 -7.44873047 72.97363281 C-5.05190109 70.90262941 -2.7010724 68.78510063 -0.35107422 66.66113281 C0.90189453 65.53384766 0.90189453 65.53384766 2.18017578 64.38378906 C3.78746058 62.93672411 5.39178846 61.48636588 6.99267578 60.03222656 C7.70423828 59.39414063 8.41580078 58.75605469 9.14892578 58.09863281 C9.77798828 57.53015625 10.40705078 56.96167969 11.05517578 56.37597656 C12.64892578 55.16113281 12.64892578 55.16113281 14.64892578 55.16113281 C14.64892578 54.50113281 14.64892578 53.84113281 14.64892578 53.16113281 C20.12511626 48.16113281 20.12511626 48.16113281 22.64892578 48.16113281 C22.97892578 47.17113281 23.30892578 46.18113281 23.64892578 45.16113281 C25.71142578 43.47363281 25.71142578 43.47363281 27.64892578 42.16113281 C26.73191895 42.14131348 25.81491211 42.12149414 24.87011719 42.10107422 C21.42196237 42.02232141 17.97418841 41.93561158 14.52636719 41.84375 C13.04271977 41.80579847 11.55899089 41.77089103 10.07519531 41.73925781 C-12.58325934 41.25033634 -12.58325934 41.25033634 -18.35107422 36.16113281 C-21.05890588 31.15593266 -21.84427901 26.92752666 -21.72607422 21.22363281 C-21.71193481 20.17030762 -21.71193481 20.17030762 -21.69750977 19.09570312 C-21.50318099 12.42813566 -20.76235919 7.63587265 -15.97607422 2.72363281 C-10.95991028 -0.26217906 -5.70041248 0.00822025 0 0 Z " fill="#0171FD" transform="translate(757.35107421875,116.8388671875)"/>
<path d="M0 0 C0.82829315 -0.0049649 1.6565863 -0.00992981 2.50997925 -0.01504517 C5.24119914 -0.02961125 7.97236098 -0.03645894 10.70361328 -0.04199219 C12.60783896 -0.0477475 14.51206462 -0.05350518 16.41629028 -0.05926514 C20.4057848 -0.06975882 24.39525926 -0.0756124 28.38476562 -0.07910156 C33.48797519 -0.08458779 38.59091816 -0.10862552 43.69404411 -0.13707352 C47.62664559 -0.15572683 51.55918313 -0.1609069 55.4918251 -0.16243744 C57.37282903 -0.16545758 59.253832 -0.17346449 61.13479233 -0.18662262 C63.76975388 -0.20374218 66.40406738 -0.20178873 69.0390625 -0.1953125 C69.81020386 -0.20452728 70.58134521 -0.21374207 71.37585449 -0.22323608 C79.25025822 -0.16283263 84.99462986 2.50683689 90.64892578 8.16113281 C93.84688811 14.22623378 95.31631718 19.26415134 93.71142578 25.97363281 C91.81954638 31.79956051 88.21940447 36.14376938 83.64892578 40.16113281 C82.98892578 40.16113281 82.32892578 40.16113281 81.64892578 40.16113281 C81.64892578 40.82113281 81.64892578 41.48113281 81.64892578 42.16113281 C80.42626953 43.39550781 80.42626953 43.39550781 78.58642578 44.91113281 C74.36167767 48.49804151 70.31207117 52.24276939 66.27392578 56.03613281 C59.29204965 62.57867467 52.27190157 69.06633118 45.00244141 75.29003906 C44.37390259 75.82830322 43.74536377 76.36656738 43.09777832 76.92114258 C42.38059631 77.53493774 42.38059631 77.53493774 41.64892578 78.16113281 C42.90962891 78.17047852 44.17033203 78.17982422 45.46923828 78.18945312 C50.17352857 78.22950654 54.87717541 78.29530782 59.58105469 78.36865234 C61.6118947 78.39677316 63.64284235 78.41803167 65.67382812 78.43212891 C68.60358434 78.4536818 71.53205843 78.50039504 74.46142578 78.55175781 C75.36070801 78.55298645 76.25999023 78.55421509 77.18652344 78.55548096 C83.13940577 78.69192673 87.65562094 79.82924298 92.64892578 83.16113281 C97.32230512 88.13602049 96.86214431 93.5414733 96.89892578 99.97363281 C96.91955078 100.86373047 96.94017578 101.75382812 96.96142578 102.67089844 C96.99261287 107.92982112 96.6372441 111.63636781 93.64892578 116.16113281 C87.18602654 121.59584354 79.94973174 121.31080856 71.91894531 121.32226562 C71.07406555 121.32723053 70.22918579 121.33219543 69.35870361 121.33731079 C66.58304002 121.35183284 63.80743351 121.35871681 61.03173828 121.36425781 C59.60191935 121.36849888 59.60191935 121.36849888 58.14321518 121.37282562 C53.10133337 121.38777602 48.05947989 121.39703236 43.01757812 121.40136719 C37.8271869 121.40685343 32.63705777 121.43089667 27.44674873 121.45933914 C23.43858087 121.47801694 19.43047561 121.4831738 15.42226791 121.48470306 C13.50942422 121.48771723 11.5965813 121.49570367 9.68378067 121.50888824 C7.00155214 121.52606084 4.31995743 121.52404164 1.63769531 121.51757812 C0.85818512 121.52679291 0.07867493 121.53600769 -0.72445679 121.54550171 C-7.15454098 121.49728567 -13.39337472 120.28929389 -18.69091797 116.47753906 C-19.21814453 115.89875 -19.74537109 115.31996094 -20.28857422 114.72363281 C-20.83384766 114.14742188 -21.37912109 113.57121094 -21.94091797 112.97753906 C-25.47287277 108.42806819 -26.42391441 103.85177306 -26.35107422 98.16113281 C-25.28728391 92.69147764 -23.34105208 88.15111068 -19.35107422 84.16113281 C-18.69107422 84.16113281 -18.03107422 84.16113281 -17.35107422 84.16113281 C-17.35107422 83.50113281 -17.35107422 82.84113281 -17.35107422 82.16113281 C-16.05810547 80.85644531 -16.05810547 80.85644531 -14.16357422 79.28613281 C-10.35182624 76.05355502 -6.68678403 72.69951162 -3.03857422 69.28613281 C2.6573568 63.98436386 8.58556014 59.03903273 14.64892578 54.16113281 C18.06496069 51.32737658 21.38025225 48.48340853 24.46142578 45.28613281 C26.64892578 43.16113281 26.64892578 43.16113281 28.64892578 43.16113281 C28.64892578 42.50113281 28.64892578 41.84113281 28.64892578 41.16113281 C27.65562256 41.16636963 26.66231934 41.17160645 25.63891602 41.17700195 C21.92831332 41.19520051 18.21771452 41.20661879 14.50708008 41.21606445 C12.90583633 41.22107086 11.30459711 41.22787796 9.70336914 41.23657227 C7.39224121 41.24880046 5.08117409 41.25439817 2.77001953 41.25878906 C2.06244003 41.26395035 1.35486053 41.26911163 0.62583923 41.27442932 C-12.41338086 41.27587728 -12.41338086 41.27587728 -17.35107422 37.16113281 C-20.34483339 31.5641048 -20.81543366 26.94608016 -20.72607422 20.66113281 C-20.73767578 19.84515625 -20.74927734 19.02917969 -20.76123047 18.18847656 C-20.73197432 12.11294864 -19.96157554 6.77163414 -15.47607422 2.28613281 C-10.63270785 -0.27800232 -5.35554513 0.00772294 0 0 Z " fill="#0171FD" transform="translate(624.35107421875,116.8388671875)"/>
<path d="M0 0 C6.30451855 5.08012086 10.11646435 12.87455954 14.05297852 19.80163574 C15.88410963 23.02290021 17.74461014 26.2271688 19.6015625 29.43359375 C20.15647369 30.39430283 20.15647369 30.39430283 20.72259521 31.37442017 C24.20987348 37.39813605 27.82601704 43.33834125 31.5 49.25 C32.04543457 50.13002686 32.59086914 51.01005371 33.15283203 51.91674805 C35.31891139 55.65441191 35.31891139 55.65441191 38 59 C38.37511719 58.03320312 38.75023437 57.06640625 39.13671875 56.0703125 C41.68494404 49.56340203 44.29185489 43.1968469 47.51953125 36.9921875 C50.05325798 31.87125168 52.32187482 26.62641265 54.61450195 21.39379883 C62.4340561 3.75096219 62.4340561 3.75096219 68 0 C76.59535979 -1.5602598 83.99735086 0.97118522 91.296875 5.390625 C95.52445202 8.32215651 98.50482972 10.91642105 100 16 C99.76240039 23.80246455 97.2548936 29.6022248 93.875 36.5625 C92.86484281 38.70133081 91.85572846 40.84065446 90.84765625 42.98046875 C90.35668457 44.01349121 89.86571289 45.04651367 89.35986328 46.11083984 C87.60649426 49.83604073 85.94290519 53.59471684 84.3125 57.375 C83.76976889 58.62640518 83.22680033 59.87770739 82.68359375 61.12890625 C82.41401855 61.75039551 82.14444336 62.37188477 81.86669922 63.01220703 C80.22086512 66.78696232 78.54756209 70.54952982 76.875 74.3125 C76.40574097 75.36993408 76.40574097 75.36993408 75.92700195 76.44873047 C74.18145612 80.37381524 72.41657939 84.28957082 70.63671875 88.19921875 C67.7129492 94.62206231 64.82337532 101.06005654 61.9375 107.5 C61.65887115 108.12162018 61.38024231 108.74324036 61.09317017 109.38369751 C57.45352833 117.50478294 53.82394249 125.63026218 50.2097168 133.76269531 C49.20215443 136.02958943 48.19322236 138.2958753 47.18286133 140.56152344 C44.98017101 145.50680443 42.7951962 150.4564733 40.68359375 155.44140625 C40.33143799 156.26294189 39.97928223 157.08447754 39.61645508 157.9309082 C38.98718748 159.40281486 38.36737215 160.87882732 37.76049805 162.36010742 C35.41745175 167.80784213 32.26697024 173.55102815 26.6484375 176.04296875 C16.84484215 176.66622138 8.29458924 173.63528783 0.62109375 167.5625 C-2.60497945 164.45303186 -3.8900948 162.97867966 -4.41015625 158.34765625 C-4.2060561 153.30113435 -2.4036666 149.03386718 -0.4375 144.4375 C0.1045105 143.12857788 0.1045105 143.12857788 0.6574707 141.79321289 C4.33731446 132.99491659 8.34648476 124.35289371 12.58203125 115.80859375 C13.04996094 114.84050781 13.51789062 113.87242187 14 112.875 C14.4125 112.04742187 14.825 111.21984375 15.25 110.3671875 C16.6170169 106.0525404 15.24762538 103.4897234 13.25 99.5390625 C12.50767353 98.22999379 11.75718366 96.92553158 11 95.625 C10.59410645 94.91657959 10.18821289 94.20815918 9.77001953 93.47827148 C6.06187922 87.03528804 2.24194883 80.66043517 -1.60839844 74.30175781 C-5.79913754 67.3701283 -9.96103124 60.42115144 -14.1171875 53.46875 C-16.65765134 49.22230919 -19.22667844 44.99540271 -21.8203125 40.78125 C-23.00531143 38.83339605 -24.19021177 36.88548211 -25.375 34.9375 C-25.92833008 34.05247803 -26.48166016 33.16745605 -27.05175781 32.25561523 C-30.19969033 27.04229033 -31.84584358 23.12604199 -32 17 C-30.00183025 10.4726455 -24.54519796 6.12840095 -18.83984375 2.703125 C-12.53320863 -0.55039143 -6.99058859 -2.10397043 0 0 Z " fill="#0171FD" transform="translate(956,115)"/>
<path d="M0 0 C3.40669552 2.67294572 5.21855799 5.75296257 6 10 C6.09785876 11.73412083 6.14533814 13.47141627 6.15771484 15.20825195 C6.16797699 16.24645584 6.17823914 17.28465973 6.18881226 18.35432434 C6.19611359 19.47103012 6.20341492 20.5877359 6.2109375 21.73828125 C6.23900607 24.10873086 6.26767053 26.47917348 6.296875 28.84960938 C6.33812262 32.5822734 6.37501628 36.31480681 6.40136719 40.04760742 C6.42901927 43.65310543 6.47489088 47.25801205 6.5234375 50.86328125 C6.52669037 51.97391434 6.52994324 53.08454742 6.53329468 54.22883606 C6.64662654 61.39592261 7.01560159 67.01560159 12.3125 72.3125 C18.25643743 76.04473978 24.27436972 77.03946396 31.11328125 75.53515625 C36.35927198 73.86552832 38.93527842 71.5506472 42 67 C43.03833379 63.88328661 43.12955688 60.98731616 43.1418457 57.71582031 C43.14888016 56.66082336 43.15591461 55.60582642 43.16316223 54.51885986 C43.16940865 52.81569611 43.16940865 52.81569611 43.17578125 51.078125 C43.19898156 48.66665796 43.22309898 46.2551996 43.24804688 43.84375 C43.28313403 40.04746707 43.31249468 36.25150336 43.32592773 32.45507812 C43.34144056 28.78736849 43.38167448 25.12058791 43.42578125 21.453125 C43.42387283 20.32577942 43.42196442 19.19843384 43.41999817 18.03692627 C43.51663453 11.78079184 43.86486583 6.00955001 48 1 C50.59825883 -0.49972843 53.086828 -1.32006448 56 -2 C57.2375 -2.3403125 57.2375 -2.3403125 58.5 -2.6875 C66.07163989 -3.63395499 72.8920854 -2.89116141 80 0 C83.08714352 2.94013669 84.82860015 5.55924165 85.13422108 9.91132736 C85.13849456 10.63690464 85.14276804 11.36248192 85.14717102 12.11004639 C85.15432632 12.94546967 85.16148163 13.78089294 85.16885376 14.64163208 C85.17154266 15.55492279 85.17423157 16.4682135 85.17700195 17.40917969 C85.18357315 18.37373077 85.19014435 19.33828186 85.19691467 20.33206177 C85.21664817 23.52866695 85.2283105 26.72522515 85.23828125 29.921875 C85.24235678 31.01364296 85.2464323 32.10541092 85.25063133 33.23026276 C85.27149241 39.00897533 85.28579392 44.78766416 85.29516602 50.56640625 C85.30622973 56.53289712 85.34062944 62.49901497 85.38033772 68.46537399 C85.40649201 73.05508108 85.41485683 77.64469913 85.41844749 82.23447418 C85.42331659 84.43367278 85.4349397 86.63286732 85.45348549 88.8319931 C85.47785074 91.91270953 85.47691638 94.99245876 85.4699707 98.07324219 C85.48278076 98.97843597 85.49559082 99.88362976 85.50878906 100.81625366 C85.46047633 106.70732368 84.47508825 110.19326456 81 115 C75.62871586 118.24667237 70.6593316 118.49076858 64.5625 118.4375 C63.75490234 118.45748047 62.94730469 118.47746094 62.11523438 118.49804688 C56.34396137 118.49339637 51.73058405 117.43475476 47 114 C45.20685961 111.32978007 44.84429348 109.16610056 44 106 C43.47792969 106.53109375 42.95585938 107.0621875 42.41796875 107.609375 C34.58317856 115.1285782 27.50763468 118.14172396 16.625 118.5 C3.87696836 118.1113405 -6.51360293 114.05397059 -15.8125 105.375 C-16.534375 104.59125 -17.25625 103.8075 -18 103 C-18.63421875 102.39414063 -19.2684375 101.78828125 -19.921875 101.1640625 C-36.37356142 84.03204318 -36.35079243 61.32153307 -36.26074219 39.15185547 C-36.2499228 35.97734907 -36.2607493 32.80339666 -36.2734375 29.62890625 C-36.27211734 27.58593627 -36.26955792 25.54296662 -36.265625 23.5 C-36.26967346 22.56341553 -36.27372192 21.62683105 -36.27789307 20.66186523 C-36.23097923 14.04836298 -35.62125846 8.17202742 -32.5625 2.1875 C-23.80067795 -5.29210419 -9.99914847 -4.20934419 0 0 Z " fill="#0170FD" transform="translate(500,119)"/>
<path d="M0 0 C3.76790208 5.52809472 3.43458649 10.96088404 3.41650391 17.40209961 C3.42938194 19.11292976 3.42938194 19.11292976 3.44252014 20.85832214 C3.46758318 24.62305887 3.47196018 28.38753121 3.4765625 32.15234375 C3.49087495 34.77259626 3.5066324 37.39284125 3.52377319 40.01307678 C3.56225036 46.20585625 3.58649518 52.3985989 3.60489786 58.59146744 C3.64028972 70.3317417 3.70423184 82.07187552 3.76975632 93.81201363 C3.7888141 97.66462811 3.80056873 101.51721187 3.81118774 105.36985779 C3.82140261 107.73607447 3.83176076 110.10229054 3.84228516 112.46850586 C3.84332748 113.5372998 3.84436981 114.60609375 3.84544373 115.70727539 C3.88756015 123.40547818 3.88756015 123.40547818 5 131 C7.62253905 132.31126952 10.10306537 132.55431775 13 133 C18.77777778 133.88888889 18.77777778 133.88888889 21 135 C21 135.66 21 136.32 21 137 C21.66 137 22.32 137 23 137 C25.41585878 142.38417205 25.36734833 147.11840233 25.375 152.9375 C25.39949219 153.91396484 25.42398438 154.89042969 25.44921875 155.89648438 C25.47374238 161.92521067 25.05607054 165.43875099 21 170 C11.45079142 176.36613906 -4.23176141 172.97806653 -15 171 C-21.47767349 169.13509018 -27.66591772 166.77411551 -31.3359375 160.83984375 C-38.34713713 147.72930571 -38.15148048 133.20906185 -38.14526367 118.65136719 C-38.14862228 117.49349701 -38.1519809 116.33562683 -38.15544128 115.14266968 C-38.16484871 111.36072687 -38.16688864 107.57882874 -38.16796875 103.796875 C-38.17037181 101.81755922 -38.17277701 99.83824343 -38.17542917 97.85892797 C-38.18352285 91.65399559 -38.18601778 85.44907768 -38.18530273 79.24414062 C-38.18470054 72.86779534 -38.19529232 66.49153426 -38.2110464 60.11521029 C-38.22415567 54.6108151 -38.22948534 49.10644738 -38.22884732 43.60203671 C-38.2285937 40.32723413 -38.2323068 37.05252333 -38.24202538 33.77773285 C-38.25184826 30.12876902 -38.2489389 26.48002218 -38.24291992 22.83105469 C-38.24853943 21.76174713 -38.25415894 20.69243958 -38.25994873 19.59072876 C-38.22956686 12.32366207 -38.12717548 5.19076322 -34 -1 C-24.47412086 -7.04080141 -8.9241111 -7.02536406 0 0 Z " fill="#0171FD" transform="translate(905,65)"/>
<path d="M0 0 C1 3 1 3 1 5 C0.01 5.495 0.01 5.495 -1 6 C-2.21641007 9.31539507 -2.12576863 12.59076205 -2.12698364 16.0905304 C-2.12980347 17.33962189 -2.13262329 18.58871338 -2.13552856 19.87565613 C-2.13358429 21.25735488 -2.13153612 22.63905349 -2.12939453 24.02075195 C-2.1307498 25.47794641 -2.13253044 26.93514052 -2.13470459 28.39233398 C-2.1392652 32.34906104 -2.13749466 36.30576204 -2.1343255 40.26248956 C-2.1317934 44.40588466 -2.13414195 48.54927754 -2.13571167 52.69267273 C-2.13753148 59.65408732 -2.13513262 66.61549131 -2.13037109 73.5769043 C-2.12493524 81.61685612 -2.12668696 89.65678257 -2.1321975 97.69673377 C-2.13674163 104.60387524 -2.13737261 111.51100908 -2.13475883 118.41815156 C-2.13320239 122.54142465 -2.13298481 126.66468583 -2.13629532 130.78795815 C-2.13919268 134.66785234 -2.13716411 138.54771398 -2.13140106 142.42760468 C-2.13008318 143.84855533 -2.13045101 145.26950875 -2.13266373 146.6904583 C-2.1354137 148.6364774 -2.13134722 150.58250252 -2.12698364 152.52851868 C-2.12660662 153.61564809 -2.12622959 154.7027775 -2.12584114 155.82285023 C-1.98933703 159.26921129 -1.5411552 162.59563573 -1 166 C-4.21116143 163.22349963 -4.53600921 160.95147521 -4.87423325 156.73545647 C-5.12494271 151.28246662 -5.13822111 145.83512132 -5.12939453 140.37719727 C-5.13075212 139.02265374 -5.13253405 137.66811058 -5.13470459 136.31356812 C-5.13923684 132.6585782 -5.13750666 129.00361674 -5.1343255 125.34862638 C-5.13177954 121.50829067 -5.13414569 117.66795727 -5.13571167 113.82762146 C-5.13752708 107.37946133 -5.1351438 100.93131268 -5.13037109 94.4831543 C-5.124932 87.04925286 -5.12669111 79.61537886 -5.1321975 72.18147808 C-5.13674932 65.77779391 -5.137369 59.37411796 -5.13475883 52.9704327 C-5.13320713 49.15509939 -5.13297172 45.33977895 -5.13629532 41.52444649 C-5.1392041 37.9350304 -5.13714358 34.34564937 -5.13140106 30.75623703 C-5.12946837 28.82594093 -5.13240183 26.89564183 -5.13552856 24.96534729 C-5.09140702 6.653647 -5.09140702 6.653647 -1.9375 1.875 C-1.298125 1.25625 -0.65875 0.6375 0 0 Z " fill="#0548F4" transform="translate(335,65)"/>
<path d="M0 0 C6.59318487 -0.53821917 10.66105079 -0.0576014 16 4 C19.93697367 9.63124067 19.40308565 15.46912729 19.34057617 22.06396484 C19.34123329 23.87944321 19.34123329 23.87944321 19.34190369 25.7315979 C19.34017613 29.03714488 19.32516796 32.34212447 19.30418181 35.64757109 C19.28538271 39.106878 19.28366204 42.5661931 19.28010559 46.02554321 C19.27079458 52.5702866 19.24619371 59.11487902 19.21605712 65.65955603 C19.18248361 73.1129782 19.16601971 80.56640772 19.15097082 88.01988673 C19.11964321 103.34667848 19.06690124 118.67331974 19 134 C18.67 134 18.34 134 18 134 C17.99761165 133.38984826 17.99522329 132.77969652 17.99276257 132.15105534 C17.93352108 117.27663946 17.85791275 102.40237364 17.76428509 87.52813816 C17.71939767 80.33493583 17.67996695 73.14178222 17.65356445 65.94848633 C17.630527 59.67581514 17.59706535 53.40329908 17.55129844 47.13075107 C17.52744313 43.81216032 17.51021953 40.49375402 17.50238609 37.17508125 C17.49273663 33.46227444 17.46466532 29.75002304 17.43237305 26.03735352 C17.43452568 24.40275681 17.43452568 24.40275681 17.4367218 22.73513794 C17.36026624 16.50271972 16.90090007 10.63337219 14 5 C11.73982804 3.38401339 11.73982804 3.38401339 9.0625 3.0625 C5.71403328 2.38068551 3.00205267 1.66471134 0 0 Z " fill="#0A69E8" transform="translate(889,61)"/>
<path d="M0 0 C0 0.99 0 1.98 0 3 C-0.33 3.33 -0.66 3.66 -1 4 C0.26070312 4.0093457 1.52140625 4.01869141 2.8203125 4.02832031 C7.52460278 4.06837372 12.22824963 4.13417501 16.93212891 4.20751953 C18.96296892 4.23564035 20.99391657 4.25689886 23.02490234 4.27099609 C25.95465855 4.29254898 28.88313265 4.33926222 31.8125 4.390625 C32.71178223 4.39185364 33.61106445 4.39308228 34.53759766 4.39434814 C41.38683339 4.5513392 47.05001268 6.05001268 52 11 C51.625 13.125 51.625 13.125 51 15 C50.814375 14.21625 50.62875 13.4325 50.4375 12.625 C49.21395976 9.72335855 49.21395976 9.72335855 46.08178711 8.86181641 C41.19136181 7.62719444 36.27213998 7.64569295 31.25390625 7.5859375 C30.24279282 7.56657135 29.23167938 7.5472052 28.18992615 7.5272522 C24.98086818 7.4677801 21.77177372 7.42120084 18.5625 7.375 C16.37824012 7.33679043 14.19399483 7.29773698 12.00976562 7.2578125 C6.67330719 7.16210542 1.3367599 7.07696443 -4 7 C-4 5.68 -4 4.36 -4 3 C-2 1.25 -2 1.25 0 0 Z " fill="#086DE8" transform="translate(667,191)"/>
<path d="M0 0 C0 0.99 0 1.98 0 3 C-0.99 3.33 -1.98 3.66 -3 4 C-3 4.66 -3 5.32 -3 6 C-1.70900391 5.97905273 -0.41800781 5.95810547 0.91210938 5.93652344 C5.72775059 5.86381354 10.54334381 5.81808775 15.359375 5.78027344 C17.43888525 5.76022841 19.51833963 5.73298487 21.59765625 5.69824219 C24.59649487 5.64941052 27.59458463 5.62695972 30.59375 5.609375 C31.51490601 5.58872986 32.43606201 5.56808472 33.38513184 5.54681396 C39.66692062 5.54465804 43.58062318 6.80367367 49 10 C48.67 10.66 48.34 11.32 48 12 C47.0711499 11.5155542 46.1422998 11.0311084 45.18530273 10.53198242 C40.22830716 8.41944071 35.35469976 8.52254897 30.03515625 8.48828125 C28.48519203 8.46135445 28.48519203 8.46135445 26.90391541 8.43388367 C23.62348435 8.37996774 20.34319725 8.34594459 17.0625 8.3125 C14.83005818 8.27931046 12.5976353 8.24481929 10.36523438 8.20898438 C4.91028539 8.12425217 -0.54468267 8.05582346 -6 8 C-5.23163306 3.79606135 -3.45167403 2.47812494 0 0 Z " fill="#096AE7" transform="translate(801,190)"/>
<path d="M0 0 C0.99 0.33 1.98 0.66 3 1 C1.68 1.33 0.36 1.66 -1 2 C-1.33 3.98 -1.66 5.96 -2 8 C-1.34 8.33 -0.68 8.66 0 9 C-0.33 9.99 -0.66 10.98 -1 12 C-1.99 12 -2.98 12 -4 12 C-4 28.17 -4 44.34 -4 61 C-4.33 61 -4.66 61 -5 61 C-5.24523851 53.7415861 -5.45738682 46.48273536 -5.64697266 39.22265625 C-5.71526726 36.75498777 -5.7910276 34.28751381 -5.87451172 31.8203125 C-5.99347061 28.2658783 -6.08521873 24.71160077 -6.171875 21.15625 C-6.21439392 20.06010376 -6.25691284 18.96395752 -6.30072021 17.83459473 C-6.43319042 11.05248799 -5.6838149 6.75457829 -2 1 C-1.34 0.67 -0.68 0.34 0 0 Z " fill="#0667E1" transform="translate(550,119)"/>
<path d="M0 0 C6.80637688 6.44814651 6.80637688 6.44814651 7.15234375 11.0078125 C6.50027166 17.43368651 4.16191451 22.4112286 1 28 C-0.31223496 24.06329512 0.75703744 21.87511856 2 18 C2.66 18 3.32 18 4 18 C4.027193 16.41676312 4.04648306 14.83338938 4.0625 13.25 C4.07990234 11.92742187 4.07990234 11.92742187 4.09765625 10.578125 C4.00826198 8.2181162 3.66912821 6.25501476 3 4 C2.01 4.33 1.02 4.66 0 5 C0 3.35 0 1.7 0 0 Z " fill="#036CE7" transform="translate(1049,122)"/>
<path d="M0 0 C7.83493059 -0.75015293 13.38915475 0.69385309 20 5 C21.78515625 6.48046875 21.78515625 6.48046875 23 8 C23 8.99 23 9.98 23 11 C21.35 11 19.7 11 18 11 C18 9.68 18 8.36 18 7 C14.83175607 4.55592611 11.93370357 3.56195765 8 3 C8 2.67 8 2.34 8 2 C5.36 1.67 2.72 1.34 0 1 C0 0.67 0 0.34 0 0 Z " fill="#0365ED" transform="translate(62,41)"/>
<path d="M0 0 C0.66 0 1.32 0 2 0 C4.37385582 7.12156745 3.110107 13.43421856 0 20 C-0.99 20.33 -1.98 20.66 -3 21 C-1.125 16.25 -1.125 16.25 0 14 C0.07116382 11.62597499 0.08409085 9.24999323 0.0625 6.875 C0.05347656 5.59367188 0.04445313 4.31234375 0.03515625 2.9921875 C0.02355469 2.00476563 0.01195312 1.01734375 0 0 Z " fill="#0365E8" transform="translate(273,242)"/>
<path d="M0 0 C-2.45526487 2.45526487 -4.37665348 2.86969905 -7.6875 3.875 C-12.58157552 5.44157532 -16.67463873 7.24749738 -21 10 C-19.5412529 6.13473227 -17.75145854 5.02968041 -14.0625 3.3125 C-13.18722656 2.89613281 -12.31195313 2.47976562 -11.41015625 2.05078125 C-7.38579611 0.2962385 -4.36838663 -0.09707526 0 0 Z " fill="#065EEB" transform="translate(68,222)"/>
<path d="M0 0 C0.99 0.33 1.98 0.66 3 1 C2.50628906 1.39832031 2.01257813 1.79664063 1.50390625 2.20703125 C0.86324219 2.73683594 0.22257813 3.26664063 -0.4375 3.8125 C-1.07558594 4.33457031 -1.71367188 4.85664063 -2.37109375 5.39453125 C-4.2548275 7.00834411 -4.2548275 7.00834411 -5 10 C-6.62332967 11.38576923 -8.28724465 12.72641268 -10 14 C-10.33 12.68 -10.66 11.36 -11 10 C-5.555 5.05 -5.555 5.05 0 0 Z " fill="#0367F1" transform="translate(627,181)"/>
<path d="M0 0 C0.99 0 1.98 0 3 0 C2.58306691 4.8642194 0.67251308 6.89876673 -3 10 C-6.3125 11.8125 -6.3125 11.8125 -9 13 C-9.33 12.34 -9.66 11.68 -10 11 C-8.02 10.01 -6.04 9.02 -4 8 C-4 6.68 -4 5.36 -4 4 C-2.68 4 -1.36 4 0 4 C0 2.68 0 1.36 0 0 Z " fill="#0469F2" transform="translate(306,185)"/>
<path d="M0 0 C0.99 0.33 1.98 0.66 3 1 C3 1.66 3 2.32 3 3 C2.34 3 1.68 3 1 3 C0.67 4.32 0.34 5.64 0 7 C-0.33 7 -0.66 7 -1 7 C-1 7.99 -1 8.98 -1 10 C-1.66 9.67 -2.32 9.34 -3 9 C-3.99 9 -4.98 9 -6 9 C-6 6 -6 6 -4.625 4.3125 C-3 3 -3 3 -1 3 C-0.67 2.01 -0.34 1.02 0 0 Z " fill="#056EF5" transform="translate(781,162)"/>
<path d="M0 0 C0.99 0.33 1.98 0.66 3 1 C1.68 1.33 0.36 1.66 -1 2 C-1.33 3.98 -1.66 5.96 -2 8 C-1.34 8.33 -0.68 8.66 0 9 C-0.33 9.99 -0.66 10.98 -1 12 C-2.65 12 -4.3 12 -6 12 C-5.49135273 7.62563349 -4.57073772 4.59903281 -2 1 C-1.34 0.67 -0.68 0.34 0 0 Z " fill="#0264F2" transform="translate(550,119)"/>
<path d="M0 0 C3.40755272 1.92880342 6.74147635 3.8276509 10 6 C10 6.66 10 7.32 10 8 C10.61875 8.2475 11.2375 8.495 11.875 8.75 C14.35068687 10.20628639 14.95125002 11.37812506 16 14 C10.37105566 10.44487726 4.91934644 6.49157719 0 2 C0 1.34 0 0.68 0 0 Z " fill="#0265EB" transform="translate(419,123)"/>
<path d="M0 0 C-3.11093224 3.11093224 -7.10606306 3.72494248 -11.25 5 C-14.09816984 5.8162462 -14.09816984 5.8162462 -16 8 C-16 7.34 -16 6.68 -16 6 C-16.66 5.67 -17.32 5.34 -18 5 C-16.13103445 4.15321949 -14.25449819 3.32313789 -12.375 2.5 C-10.80878906 1.80390625 -10.80878906 1.80390625 -9.2109375 1.09375 C-5.91875709 -0.02767398 -3.44884777 -0.207138 0 0 Z " fill="#0566ED" transform="translate(188,182)"/>
<path d="M0 0 C3.06975784 3.4928623 4.32350282 7.39015404 5.6875 11.75 C5.91244141 12.44738281 6.13738281 13.14476562 6.36914062 13.86328125 C6.91963366 15.57332344 7.46076237 17.28637529 8 19 C7.01 18.67 6.02 18.34 5 18 C3.95019646 15.71408975 3.10201938 13.56082866 2.3125 11.1875 C1.87550781 9.94355469 1.43851563 8.69960938 0.98828125 7.41796875 C0 4 0 4 0 0 Z " fill="#0364EB" transform="translate(203,32)"/>
<path d="M0 0 C2.38564077 0.57584432 4.66682784 1.22227595 7 2 C9.05893621 2.22325814 11.12233653 2.40705759 13.1875 2.5625 C14.27417969 2.64628906 15.36085938 2.73007813 16.48046875 2.81640625 C17.72763672 2.90728516 17.72763672 2.90728516 19 3 C19 3.33 19 3.66 19 4 C12.18597425 5.05268874 6.63198569 4.93833398 0 3 C0 2.01 0 1.02 0 0 Z " fill="#066DED" transform="translate(379,193)"/>
<path d="M0 0 C-2.10966548 1.64085093 -4.17979149 3.10338011 -6.5 4.4375 C-9.06046626 6.03779141 -10.94905301 7.79713101 -13 10 C-13.3125 7.6875 -13.3125 7.6875 -13 5 C-10.6875 3.3125 -10.6875 3.3125 -8 2 C-4.77208445 -0.1519437 -3.71599191 -0.20086443 0 0 Z " fill="#0669EE" transform="translate(387,158)"/>
<path d="M0 0 C-1.75 2 -1.75 2 -4 4 C-5.32 4 -6.64 4 -8 4 C-8.99 6.64 -9.98 9.28 -11 12 C-11.33 12 -11.66 12 -12 12 C-12.35671933 8.16526716 -12.29771416 6.44657125 -10.125 3.1875 C-6.76003405 -0.27643554 -4.71354096 -0.10246828 0 0 Z " fill="#0565ED" transform="translate(617,118)"/>
<path d="M0 0 C0.33 0.66 0.66 1.32 1 2 C1.7425 1.649375 2.485 1.29875 3.25 0.9375 C6.1322726 -0.04509293 7.21176345 -0.0326802 10 1 C8.9275 1.433125 7.855 1.86625 6.75 2.3125 C3.83727354 3.55321513 1.43963834 4.95070379 -1 7 C-1.66666667 5.66666667 -2.33333333 4.33333333 -3 3 C-2.01 2.01 -1.02 1.02 0 0 Z " fill="#0466EB" transform="translate(120,133)"/>
<path d="M0 0 C0.598125 0.639375 1.19625 1.27875 1.8125 1.9375 C3.90810337 4.20310389 3.90810337 4.20310389 7 5 C7 5.66 7 6.32 7 7 C9.97 7.495 9.97 7.495 13 8 C13 8.66 13 9.32 13 10 C7.61651963 9.36664937 3.79089107 6.79089107 0 3 C0 2.01 0 1.02 0 0 Z " fill="#056CEE" transform="translate(735,227)"/>
<path d="M0 0 C1 3 1 3 0.328125 5.0078125 C-0.02765625 5.70648438 -0.3834375 6.40515625 -0.75 7.125 C-1.26820313 8.18074219 -1.26820313 8.18074219 -1.796875 9.2578125 C-3 11 -3 11 -6 12 C-5.46440184 8.14369327 -4.48261705 5.97914046 -2 3 C-1.34 2.01 -0.68 1.02 0 0 Z " fill="#0567F1" transform="translate(446,198)"/>
<path d="M0 0 C3.3 0.66 6.6 1.32 10 2 C10 2.33 10 2.66 10 3 C5.38 3.33 0.76 3.66 -4 4 C-3.67 3.34 -3.34 2.68 -3 2 C-2.01 2 -1.02 2 0 2 C0 1.34 0 0.68 0 0 Z " fill="#046BF0" transform="translate(136,194)"/>
<path d="M0 0 C-2.16099373 2.16099373 -3.5210418 2.71563716 -6.375 3.6875 C-7.14585938 3.95949219 -7.91671875 4.23148438 -8.7109375 4.51171875 C-11.20055308 5.04278009 -12.61553018 4.81115526 -15 4 C-14.34 4 -13.68 4 -13 4 C-13 3.34 -13 2.68 -13 2 C-8.46298506 0.54815522 -4.81938524 -0.23509196 0 0 Z " fill="#0768EE" transform="translate(52,159)"/>
<path d="M0 0 C-0.66 0.66 -1.32 1.32 -2 2 C-1.67 2.66 -1.34 3.32 -1 4 C-1.99 4 -2.98 4 -4 4 C-4 3.34 -4 2.68 -4 2 C-5.1446875 2.495 -5.1446875 2.495 -6.3125 3 C-9 4 -9 4 -12 4 C-12 3.34 -12 2.68 -12 2 C-7.8803623 0.70756464 -4.33168317 -0.26252625 0 0 Z " fill="#046BF0" transform="translate(235,46)"/>
<path d="M0 0 C0.99 0.33 1.98 0.66 3 1 C3 1.66 3 2.32 3 3 C6.63 3 10.26 3 14 3 C11.58513057 5.41486943 10.87292211 5.2961925 7.5625 5.3125 C6.38880859 5.33763672 6.38880859 5.33763672 5.19140625 5.36328125 C2.50949386 4.91868615 1.62252392 4.1442358 0 2 C0 1.34 0 0.68 0 0 Z " fill="#065FE7" transform="translate(244,155)"/>
<path d="M0 0 C0.66 0 1.32 0 2 0 C2.25 5.625 2.25 5.625 0 9 C-0.66 9 -1.32 9 -2 9 C-1.125 2.25 -1.125 2.25 0 0 Z " fill="#026AEE" transform="translate(926,127)"/>
<path d="M0 0 C-1.27007214 0.9593419 -2.54108919 1.91743294 -3.8125 2.875 C-4.87404297 3.67550781 -4.87404297 3.67550781 -5.95703125 4.4921875 C-7.60456297 5.70814781 -9.29624211 6.86416141 -11 8 C-10.60935585 5.53471865 -10.26760629 4.26692012 -8.4765625 2.48046875 C-7.86554687 2.05378906 -7.25453125 1.62710938 -6.625 1.1875 C-6.01914062 0.74792969 -5.41328125 0.30835938 -4.7890625 -0.14453125 C-3 -1 -3 -1 0 0 Z " fill="#0568EB" transform="translate(56,45)"/>
<path d="M0 0 C0.66 0.33 1.32 0.66 2 1 C-1.875 6.875 -1.875 6.875 -3 8 C-4.66617115 8.04063832 -6.33388095 8.042721 -8 8 C-5 6 -5 6 -3 5 C-2.835 4.34 -2.67 3.68 -2.5 3 C-2.335 2.34 -2.17 1.68 -2 1 C-1.34 0.67 -0.68 0.34 0 0 Z " fill="#0569EE" transform="translate(928,228)"/>
<path d="M0 0 C0.99 0 1.98 0 3 0 C1.48328036 4.55015893 -2.16891053 6.50057264 -6 9 C-4.4705003 5.55862568 -2.54630448 2.7777867 0 0 Z " fill="#0364F1" transform="translate(695,164)"/>
<path d="M0 0 C0.53625 0.763125 1.0725 1.52625 1.625 2.3125 C4.20205814 5.22864474 6.45814404 6.4705622 10 8 C9.01 8.66 8.02 9.32 7 10 C4.0625 8.375 4.0625 8.375 1 6 C0.125 2.75 0.125 2.75 0 0 Z " fill="#045FEC" transform="translate(738,147)"/>
<path d="M0 0 C0.33 0 0.66 0 1 0 C0.88557539 1.60495567 0.75805306 3.20898119 0.625 4.8125 C0.55539062 5.70582031 0.48578125 6.59914062 0.4140625 7.51953125 C0 10 0 10 -2 13 C-2.66 13 -3.32 13 -4 13 C-4 12.01 -4 11.02 -4 10 C-3.34 9.67 -2.68 9.34 -2 9 C-1.5720382 7.13690908 -1.5720382 7.13690908 -1.4375 5 C-1.09589041 1.09589041 -1.09589041 1.09589041 0 0 Z " fill="#0560F3" transform="translate(850,136)"/>
<path d="M0 0 C-0.33 0.99 -0.66 1.98 -1 3 C-4.3 3.33 -7.6 3.66 -11 4 C-11 3.34 -11 2.68 -11 2 C-9.5422647 1.664061 -8.08378894 1.33133376 -6.625 1 C-5.40683594 0.7215625 -5.40683594 0.7215625 -4.1640625 0.4375 C-2 0 -2 0 0 0 Z " fill="#056CEF" transform="translate(986,287)"/>
<path d="M0 0 C0.99 1.485 0.99 1.485 2 3 C4.70143167 5.89538702 4.70143167 5.89538702 8 8 C8 8.66 8 9.32 8 10 C2.25 8.375 2.25 8.375 0 5 C-0.125 2.3125 -0.125 2.3125 0 0 Z " fill="#056AE9" transform="translate(546,226)"/>
<path d="M0 0 C0 0.99 0 1.98 0 3 C-0.99 3.33 -1.98 3.66 -3 4 C-3.33 4.66 -3.66 5.32 -4 6 C-6.97 5.505 -6.97 5.505 -10 5 C-7.90217213 2.90217213 -6.6200793 2.3490604 -3.875 1.375 C-3.15054688 1.11460938 -2.42609375 0.85421875 -1.6796875 0.5859375 C-0.84824219 0.29589844 -0.84824219 0.29589844 0 0 Z " fill="#0460EE" transform="translate(139,76)"/>
<path d="M0 0 C2.97069541 2.54631035 4.4775751 5.42230149 6 9 C5.67 9.66 5.34 10.32 5 11 C4.15504811 9.92570402 3.32445142 8.84010798 2.5 7.75 C2.0359375 7.14671875 1.571875 6.5434375 1.09375 5.921875 C0 4 0 4 0 0 Z " fill="#0266F0" transform="translate(949,177)"/>
<path d="M0 0 C0.66 0.33 1.32 0.66 2 1 C0.02 3.31 -1.96 5.62 -4 8 C-5 4 -5 4 -4 2 C-3.01 2 -2.02 2 -1 2 C-0.67 1.34 -0.34 0.68 0 0 Z " fill="#046BF0" transform="translate(544,221)"/>
<path d="M0 0 C0.66 0.33 1.32 0.66 2 1 C0.35 2.98 -1.3 4.96 -3 7 C-4.32 6.67 -5.64 6.34 -7 6 C-4.69 4.02 -2.38 2.04 0 0 Z " fill="#0364F5" transform="translate(750,190)"/>
<path d="M0 0 C1.64846769 0.44876616 3.29373455 0.90930488 4.9375 1.375 C5.85402344 1.63023438 6.77054687 1.88546875 7.71484375 2.1484375 C10 3 10 3 11 5 C6.24792529 5.43200679 3.21789302 3.98489083 -1 2 C-0.67 1.34 -0.34 0.68 0 0 Z " fill="#0467ED" transform="translate(407,118)"/>
<path d="M0 0 C7.71428571 4 7.71428571 4 9 8 C5.4213696 6.34832443 2.25179812 4.21713508 -1 2 C-0.67 1.34 -0.34 0.68 0 0 Z " fill="#055BE5" transform="translate(187,6)"/>
<path d="M0 0 C3.55780196 0.60990891 6.6828589 1.5783681 10 3 C10 3.33 10 3.66 10 4 C2.25 3.125 2.25 3.125 0 2 C0 1.34 0 0.68 0 0 Z " fill="#056AED" transform="translate(963,285)"/>
<path d="M0 0 C0.66 0.33 1.32 0.66 2 1 C0.625 3.5 0.625 3.5 -1 6 C-1.66 6 -2.32 6 -3 6 C-3.33 4.35 -3.66 2.7 -4 1 C-2.68 1.33 -1.36 1.66 0 2 C0 1.34 0 0.68 0 0 Z " fill="#0566F0" transform="translate(851,228)"/>
<path d="M0 0 C0 0.99 0 1.98 0 3 C-0.99 3.33 -1.98 3.66 -3 4 C-3 4.66 -3 5.32 -3 6 C-2.01 6.33 -1.02 6.66 0 7 C-2.97 6.505 -2.97 6.505 -6 6 C-2.25 1.125 -2.25 1.125 0 0 Z " fill="#0462EC" transform="translate(801,190)"/>
<path d="M0 0 C0.99 0.33 1.98 0.66 3 1 C3 1.66 3 2.32 3 3 C2.34 3 1.68 3 1 3 C0.67 4.32 0.34 5.64 0 7 C-0.33 6.34 -0.66 5.68 -1 5 C-1.66 5 -2.32 5 -3 5 C-3 4.34 -3 3.68 -3 3 C-2.34 3 -1.68 3 -1 3 C-0.67 2.01 -0.34 1.02 0 0 Z " fill="#0360F4" transform="translate(781,162)"/>
<path d="M0 0 C3.78611227 0.54087318 5.55400767 2.11722332 8 5 C8 5.66 8 6.32 8 7 C7.01 6.67 6.02 6.34 5 6 C4.67 5.34 4.34 4.68 4 4 C3.01 3.67 2.02 3.34 1 3 C0.67 2.01 0.34 1.02 0 0 Z " fill="#036BEE" transform="translate(298,154)"/>
<path d="M0 0 C1.32 0 2.64 0 4 0 C3.67 1.65 3.34 3.3 3 5 C2.34 5 1.68 5 1 5 C1 4.34 1 3.68 1 3 C0.34 3 -0.32 3 -1 3 C-0.67 2.01 -0.34 1.02 0 0 Z " fill="#036CED" transform="translate(986,281)"/>
<path d="M0 0 C2.71675995 0.36712972 4.61063713 0.72744599 6.875 2.3125 C8 4 8 4 7.6875 6.1875 C7.460625 6.785625 7.23375 7.38375 7 8 C6.6596875 6.824375 6.6596875 6.824375 6.3125 5.625 C5.21875 2.78125 5.21875 2.78125 2.375 1.6875 C1.59125 1.460625 0.8075 1.23375 0 1 C0 0.67 0 0.34 0 0 Z " fill="#0B6BE1" transform="translate(711,198)"/>
<path d="M0 0 C0.66 0 1.32 0 2 0 C2.66 1.32 3.32 2.64 4 4 C3.01 4.33 2.02 4.66 1 5 C0.67 5.99 0.34 6.98 0 8 C-0.66 8 -1.32 8 -2 8 C-1.67 7.4225 -1.34 6.845 -1 6.25 C0.27075898 3.80116138 0.27075898 3.80116138 0 0 Z " fill="#0461E8" transform="translate(50,100)"/>
<path d="M0 0 C0.33 1.32 0.66 2.64 1 4 C-0.65 5.32 -2.3 6.64 -4 8 C-3.50168276 4.31245243 -2.89932357 2.39509338 0 0 Z " fill="#0367F4" transform="translate(376,122)"/>
</svg>
